# xmcd
#
# Track frame offsets: 
#        150
#        18542
#        36872
#        55844
#        71364
#        90127
#        130915
#        154068
#        168280
#        182845
#        220324
#        226560
#        291363
#
# Disc length: 4479 seconds
#
# Revision: 0
# Processed by: cddbd v1.5.2PL0 Copyright (c) Steve Scherf et al.
# Submitted via: ExactAudioCopy v0.99pb5
#
DISCID=a7117d0d
DTITLE=Caravan  - The World Is Yours - An Anthology 1968-1976 - Disc 1
DYEAR=1900
DGENRE=
TTITLE0=Place Of My Own
TTITLE1=Magic Man
TTITLE2=Love Song With Flute
TTITLE3=Grandma's Lawn
TTITLE4=Cecil Rons
TTITLE5=Where But For Caravan Would I ?
TTITLE6=A Day In The Life Of Maurice Haylett
TTITLE7=If I Could Do It All Over Again, I'd Do It All Over You
TTITLE8=Clipping The Eighth (Hello Hello Demo)
TTITLE9=And I Wish I Were Stoned \\ Don't Worry
TTITLE10=Asforteri
TTITLE11=Can't Be Long Now - Francoise - For Richard - Warlock
TTITLE12=With An Ear To The Ground You Can Make It
EXTD=
EXTT0=
EXTT1=
EXTT2=
EXTT3=
EXTT4=
EXTT5=
EXTT6=
EXTT7=
EXTT8=
EXTT9=
EXTT10=
EXTT11=
EXTT12=
PLAYORDER=
